<?xml version="1.0" encoding="utf-8"?>
<!-- Generator: Adobe Illustrator 14.0.0, SVG Export Plug-In . SVG Version: 6.00 Build 43363)  -->
<!DOCTYPE svg PUBLIC "-//W3C//DTD SVG 1.1//EN" "http://www.w3.org/Graphics/SVG/1.1/DTD/svg11.dtd">
<svg version="1.1" id="Layer_1" xmlns="http://www.w3.org/2000/svg" xmlns:xlink="http://www.w3.org/1999/xlink" x="0px" y="0px"
	 width="612px" height="792px" viewBox="0 0 612 792" enable-background="new 0 0 612 792" xml:space="preserve">
<g>
	<polygon fill-rule="evenodd" clip-rule="evenodd" fill="#FFFFFF" points="209,300 401.756,300 401.756,492.756 209,492.756 
		209,300 	"/>
	<path fill-rule="evenodd" clip-rule="evenodd" fill="#6D6E71" d="M344.296,382.84c-0.833-0.467-2.065-0.733-2.966-0.4
		c-0.066-1.066-0.366-2.066-1.267-2.8c-0.8-0.667-2.132-0.633-3.132-0.399c-1.4,0.666-1.967,2.133-1.9,3.599
		c-0.6-0.167-1.299-0.333-1.933-0.167c-0.833,0.167-1.533,0.9-1.999,1.6c-0.268,0.8-0.533,1.866-0.067,2.666
		c0.434,0.933,1.5,1.633,2.399,1.9c-0.767,0.833-0.933,2.199-0.5,3.199c0.567,1.066,1.633,1.933,2.899,1.833
		c0.967-0.033,1.833-0.4,2.467-1.267c0.733,0.833,1.6,1.267,2.633,1.267c1.3,0.1,2.366-0.934,2.899-2
		c0.433-1.233-0.066-2.466-0.8-3.433c0.5-0.167,0.999-0.4,1.433-0.7c0.8-0.633,1-1.5,1.1-2.4
		C345.529,384.34,345.163,383.473,344.296,382.84L344.296,382.84z M339.964,387.972c-0.233,0.533-0.8,0.967-1.333,1.1
		c-0.699,0.1-1.267-0.067-1.767-0.467c-0.566-0.533-0.8-1.333-0.566-2.066c0.167-0.667,0.866-1.266,1.533-1.366
		c0.733-0.167,1.333,0.2,1.833,0.633C340.063,386.406,340.33,387.272,339.964,387.972L339.964,387.972z"/>
	<path fill-rule="evenodd" clip-rule="evenodd" fill="#6D6E71" d="M314.47,385.606l-0.007,8.798l7.672-8.631h7.831l-10.863,12.164
		l10.797,12.122l-8.165,0.042c-2.499-2.6-4.838-5.531-7.271-8.165v8.465h-6.158v-24.794H314.47L314.47,385.606z"/>
	<path fill-rule="evenodd" clip-rule="evenodd" fill="#6D6E71" d="M378.289,385.439c1.433,3.199,2.532,8.365,3.999,11.664
		l4.332-11.664h6.632l-0.1,0.467l-11.331,27.66c-2.167,0.167-4.499,0.066-6.565,0.101c0.934-2.7,2.232-5.232,3.366-7.865
		l-6.965-20.295l0.066-0.067H378.289L378.289,385.439z"/>
	<polygon fill-rule="evenodd" clip-rule="evenodd" fill="#6D6E71" points="271.446,410.4 265.281,410.4 265.281,385.606 
		271.446,385.606 271.446,410.4 	"/>
	<path fill-rule="evenodd" clip-rule="evenodd" fill="#6D6E71" d="M353.661,391.354c0,0,1.899-0.033,2.866,0l-0.026,5.049
		l-2.834-0.042l-0.006,13.706h-6.135l0.036-13.706h-2.866l-0.066-5.007l2.865,0.017l0.031-6.298h6.141L353.661,391.354
		L353.661,391.354z"/>
	<path fill-rule="evenodd" clip-rule="evenodd" fill="#6D6E71" d="M251.5,405.701c-1.583,0-2.75-1.582-2.783-3.266l13.431-0.028
		c-0.067-2.199-0.033-4.57-0.934-6.47c-1.366-3.199-4.666-5.166-7.865-5.732c-4.266-0.633-8.098,1.167-10.397,4.799
		c-2,3.265-1.833,8.264,0.5,11.331c2.232,2.999,5.365,4.499,9.098,4.266c3.866-0.167,7.165-2.966,8.898-6.332h-7.298
		C253.667,405.285,253.25,405.701,251.5,405.701L251.5,405.701z M250.717,395.237c0.9-0.3,2.066-0.233,2.799,0.4
		c0.633,0.534,0.833,1.233,1.133,1.9l-0.233,0.166h-5.365C248.951,396.703,249.818,395.704,250.717,395.237L250.717,395.237z"/>
	<path fill-rule="evenodd" clip-rule="evenodd" fill="#6D6E71" d="M301.439,394.304c-1.733-2.299-4.1-3.666-6.732-4.065
		c-4.399-0.567-8.498,1.366-10.631,5.099c-1.699,3.099-1.699,7.698,0.333,10.665c2,3.099,5.432,4.732,9.032,4.698
		c3.666-0.1,7.031-2.433,8.798-5.665C304.105,401.836,303.605,397.203,301.439,394.304L301.439,394.304z M296.374,402.469
		c-0.933,1.233-2.333,1.601-3.732,1.533c-1.1-0.2-2.133-0.833-2.733-1.866c-0.799-1.167-0.566-2.8,0-3.999
		c0.667-0.934,1.7-1.633,2.8-1.833c1.633-0.233,2.966,0.566,3.833,1.833C297.34,399.437,297.174,401.236,296.374,402.469
		L296.374,402.469z"/>
	<path fill-rule="evenodd" clip-rule="evenodd" fill="#6D6E71" d="M368.224,391.404c0,0,1.9-0.033,2.867,0l-0.026,5.049
		l-2.834-0.042l-0.007,13.706h-6.134l0.036-13.706h-2.866l-0.066-5.007l2.865,0.017l0.031-6.298h6.141L368.224,391.404
		L368.224,391.404z"/>
	<polygon fill-rule="evenodd" clip-rule="evenodd" fill="#6D6E71" points="341.063,410.034 341.063,395.278 334.981,395.278 
		334.981,410.034 341.063,410.034 	"/>
	<polygon fill-rule="evenodd" clip-rule="evenodd" fill="#6D6E71" points="280.702,410.434 274.537,410.434 274.537,385.64 
		280.702,385.64 280.702,410.434 	"/>
	<polygon fill-rule="evenodd" clip-rule="evenodd" fill="#6D6E71" points="232.259,385.49 232.259,394.121 223.669,394.121 
		223.669,385.456 217.504,385.456 217.504,410.251 223.669,410.251 223.669,400.369 232.259,400.369 232.259,410.284 
		238.424,410.284 238.424,385.49 232.259,385.49 	"/>
</g>
</svg>
